<?xml version="1.0" encoding="UTF-8" standalone="no"?>
<!-- Created with Inkscape (http://www.inkscape.org/) -->

<svg
   width="542.08063mm"
   height="168.00009mm"
   viewBox="0 0 542.08063 168.00009"
   version="1.1"
   id="svg5"
   xml:space="preserve"
   xmlns="http://www.w3.org/2000/svg"
   xmlns:svg="http://www.w3.org/2000/svg"><defs
     id="defs2" /><path
     id="path311"
     style="font-weight:800;font-size:71.3713px;line-height:0;font-family:Outfit;-inkscape-font-specification:'Outfit Ultra-Bold';letter-spacing:2.64583px;fill:#2b1515;stroke-width:2.97379"
     d="M 83.138595,0 55.425557,16.000057 124.70763,55.999683 96.995113,71.99974 124.70815,87.999797 180.13319,55.999683 Z M 55.425557,23.756173 v 8.243424 l 48.497303,27.756445 6.92825,-3.999755 z M 207.10519,47.801733 V 62.8835 h 30.63895 l -32.44918,43.74048 v 12.46901 h 55.3036 V 104.00967 H 228.95398 L 261.40317,60.269189 V 47.801733 Z m 130.95325,1.809709 v 20.310905 h -10.85929 v 14.579989 h 10.85929 v 34.590654 h 17.49608 V 84.502336 h 10.85929 V 69.922347 H 355.55452 V 49.611442 Z M 180.13371,63.756832 124.70918,95.758496 96.994596,79.756372 96.99408,87.999797 124.70712,103.99985 180.13267,71.99974 Z M 55.425557,63.999711 0,95.999825 96.994596,152.00002 124.70763,135.99997 55.425557,95.999825 69.282076,87.999797 83.138595,79.999768 Z m 239.529053,4.716508 c -5.09464,0 -9.68627,1.139734 -13.77539,3.418913 -4.02209,2.212144 -7.20669,5.261818 -9.55291,9.149829 -2.3462,3.820977 -3.51916,8.212273 -3.51916,13.172839 0,5.027602 1.20618,9.48481 3.61942,13.37283 2.41324,3.888 5.73176,6.93871 9.95494,9.15086 4.22318,2.14512 9.08366,3.21737 14.58051,3.21737 4.35725,0 8.2446,-0.70376 11.66337,-2.11149 3.48582,-1.40773 6.43531,-3.48583 8.84856,-6.23425 l -9.14983,-9.15034 c -1.47475,1.67586 -3.15012,2.91629 -5.02709,3.7207 -1.80992,0.80441 -3.92176,1.20613 -6.33501,1.20613 -2.54732,0 -4.69288,-0.50241 -6.43578,-1.50792 -1.7429,-1.00552 -3.08351,-2.48001 -4.02198,-4.42402 -0.22963,-0.49207 -0.43065,-1.00903 -0.6041,-1.54926 l 34.4904,-0.160198 c 0.33514,-1.340694 0.53601,-2.51416 0.60307,-3.519682 0.13407,-1.072553 0.20102,-2.112117 0.20102,-3.117639 0,-4.759462 -1.10601,-8.982603 -3.31814,-12.669511 -2.14512,-3.753942 -5.16157,-6.669711 -9.04958,-8.747786 -3.82098,-2.14511 -8.21176,-3.217375 -13.17232,-3.217375 z m 221.58544,0 c -5.09466,0 -9.68627,1.139734 -13.77539,3.418913 -4.02209,2.212144 -7.20669,5.261818 -9.5529,9.149829 -2.34622,3.820977 -3.51969,8.212273 -3.51969,13.172839 0,5.027602 1.20669,9.48481 3.61994,13.37283 2.41324,3.888 5.73174,6.93871 9.95495,9.15086 4.22317,2.14512 9.08366,3.21737 14.5805,3.21737 4.35726,0 8.2451,-0.70376 11.66389,-2.11149 3.48578,-1.40773 6.43582,-3.48583 8.84907,-6.23425 l -9.15086,-9.15034 c -1.47476,1.67586 -3.15063,2.91629 -5.0276,3.7207 -1.80993,0.80441 -3.92126,1.20613 -6.3345,1.20613 -2.54733,0 -4.69237,-0.50241 -6.43527,-1.50792 -1.74289,-1.00552 -3.08399,-2.48001 -4.02249,-4.42402 -0.22963,-0.49207 -0.43065,-1.00903 -0.6041,-1.54926 l 34.49041,-0.160198 c 0.33515,-1.340694 0.536,-2.51416 0.60306,-3.519682 0.13407,-1.072553 0.20154,-2.112117 0.20154,-3.117639 0,-4.759462 -1.10652,-8.982603 -3.31866,-12.669511 -2.14512,-3.753942 -5.16156,-6.669711 -9.04958,-8.747786 -3.82099,-2.14511 -8.21178,-3.217375 -13.17232,-3.217375 z m -143.42226,1.206128 20.01067,49.170643 15.48484,-0.10077 20.00963,-49.069873 h -18.50119 l -9.11469,29.802315 -9.18652,-29.802315 z m 62.20913,0 v 28.456661 c 0,4.223182 1.00583,8.010872 3.01687,11.362612 2.07807,3.2847 4.89315,5.8652 8.44599,7.74216 3.61987,1.80993 7.74284,2.71508 12.36824,2.71508 4.69244,0 8.81435,-0.90515 12.3672,-2.71508 3.61987,-1.87696 6.43599,-4.45746 8.44703,-7.74216 2.01104,-3.2847 3.01636,-7.0724 3.01636,-11.362612 V 69.922347 h -17.49609 v 28.456661 c 0,2.011032 -0.60309,3.619432 -1.80971,4.826062 -1.13958,1.20662 -2.64781,1.81023 -4.52479,1.81023 -1.27365,0 -2.38018,-0.26833 -3.31866,-0.80461 -0.93849,-0.53628 -1.67548,-1.307 -2.21175,-2.31252 -0.53628,-1.00552 -0.8046,-2.178469 -0.8046,-3.519162 V 69.922347 Z M 295.15563,81.284961 c 2.14511,0 3.92115,0.46918 5.32887,1.407666 1.40773,0.938487 2.48103,2.312809 3.21841,4.122746 0.24199,0.571996 0.44671,1.199689 0.6165,1.879988 l -19.15594,0.158647 c 0.15645,-0.500176 0.33617,-0.979127 0.54054,-1.435055 0.87147,-1.944007 2.11135,-3.452232 3.72018,-4.524788 1.60883,-1.072555 3.51929,-1.609204 5.73144,-1.609204 z m 221.58492,0 c 2.14512,0 3.92166,0.46918 5.32939,1.407666 1.40774,0.938487 2.48051,2.312809 3.21789,4.122746 0.24199,0.572007 0.44775,1.199674 0.61754,1.879988 l -19.15646,0.158647 c 0.15645,-0.500176 0.33616,-0.979127 0.54054,-1.435055 0.87145,-1.944007 2.11135,-3.452232 3.72019,-4.524788 1.60881,-1.072555 3.51877,-1.609204 5.73091,-1.609204 z m -433.601955,6.47144 -13.856519,7.999511 6.928259,4.000273 6.92826,-4.000273 z M 0,103.75594 v 8.24394 l 96.994596,56.0002 27.713034,-16.00006 v -8.24394 l -27.714067,16.00109 z" />
     </svg>
